<?xml version="1.0" encoding="utf-8"?>
    <svg version="1.1" id="Layer_1" xmlns="http://www.w3.org/2000/svg" xmlns:xlink="http://www.w3.org/1999/xlink" x="0px" y="0px" viewBox="70 30 350 350"  style="width:50px; height:32px" xml:space="preserve">
    <g fill="#FFFFFF">
        <path d=" M 100.66 121.67 C 108.94 119.60 117.55 120.07 126.00 119.90 C 217.66 120.28 309.34 119.65 400.99 120.19 C 418.15 120.12 434.33 132.82 438.50 149.41 C 440.29 157.31 439.86 165.47 440.18 173.51 C 446.73 170.61 453.64 167.70 460.96 168.06 C 477.80 167.91 493.61 181.65 495.52 198.41 C 497.01 207.87 493.56 217.10 490.90 226.01 C 481.14 255.78 472.34 285.86 462.64 315.65 C 459.55 325.35 453.14 334.23 443.93 338.88 C 438.35 342.05 431.95 343.04 425.81 344.55 C 427.18 358.14 430.76 371.42 431.77 385.04 C 432.02 389.95 426.38 392.85 422.01 392.02 C 415.31 391.23 405.33 395.32 401.14 387.90 C 390.90 373.62 381.60 358.69 371.83 344.09 C 294.59 343.92 217.36 343.99 140.12 344.05 C 130.29 358.93 120.69 373.96 110.62 388.67 C 106.37 394.31 97.90 391.34 91.97 392.21 C 85.86 393.74 78.14 389.16 80.29 382.03 C 81.56 369.42 84.60 357.04 86.11 344.46 C 75.87 343.02 65.73 339.09 58.36 331.64 C 52.42 325.02 49.56 316.43 46.80 308.15 C 39.24 283.13 31.25 258.24 23.53 233.26 C 20.53 223.35 16.45 213.52 16.10 203.03 C 15.87 186.18 29.67 170.40 46.41 168.48 C 55.31 166.51 63.83 170.20 71.82 173.63 C 72.37 163.40 71.02 152.37 75.90 142.94 C 80.61 132.72 89.86 124.77 100.66 121.67 M 105.87 136.87 C 95.11 139.55 87.03 150.86 87.98 161.97 C 87.91 175.97 87.17 190.10 89.03 204.02 C 92.87 217.75 97.69 231.20 101.46 244.95 C 108.34 238.67 116.16 232.24 125.97 232.05 C 161.31 231.99 196.66 231.75 232.00 232.17 C 241.18 231.60 248.78 236.85 255.88 241.85 C 262.86 237.26 270.24 232.02 278.96 231.99 C 308.97 231.80 338.99 232.18 369.00 231.89 C 377.67 232.13 386.60 231.41 395.02 233.95 C 401.16 236.04 405.70 240.94 410.49 245.12 C 413.71 233.35 417.67 221.80 421.20 210.13 C 425.69 193.84 424.07 176.68 423.78 160.00 C 424.56 146.08 410.53 134.41 397.02 135.95 C 312.02 136.01 227.01 136.05 142.00 135.95 C 129.96 136.09 117.84 135.32 105.87 136.87 M 47.41 184.46 C 37.98 186.19 30.42 196.23 32.30 205.84 C 33.75 214.59 37.05 222.85 39.65 231.30 C 48.11 258.23 56.48 285.19 64.86 312.14 C 68.63 323.36 80.70 329.03 91.97 328.09 C 201.99 327.83 312.02 328.16 422.04 327.93 C 432.89 328.82 443.49 322.39 447.03 312.03 C 457.45 279.68 467.17 247.10 477.66 214.77 C 478.90 209.77 480.88 204.66 479.51 199.44 C 477.80 189.27 466.49 181.76 456.41 184.46 C 448.62 185.81 442.93 192.61 441.09 200.04 C 432.16 227.70 424.17 255.68 415.28 283.35 C 413.25 289.22 405.74 287.63 401.03 288.04 C 304.34 287.98 207.65 287.98 110.97 288.04 C 107.21 287.35 102.79 288.71 99.32 286.67 C 96.88 284.79 96.08 281.65 95.12 278.88 C 88.48 256.28 81.29 233.85 74.54 211.29 C 72.33 204.49 70.74 197.28 66.71 191.25 C 62.20 185.67 54.50 182.59 47.41 184.46 M 116.70 252.70 C 111.11 257.51 112.12 265.46 111.58 271.98 C 157.17 272.01 202.75 272.02 248.34 271.98 C 247.81 267.36 248.03 262.61 246.82 258.11 C 244.16 251.12 236.43 246.84 229.03 247.98 C 197.35 247.96 165.66 247.95 133.97 247.99 C 128.16 248.28 120.76 247.47 116.70 252.70 M 268.70 252.70 C 263.11 257.51 264.12 265.46 263.58 271.98 C 309.17 272.01 354.75 272.02 400.34 271.98 C 399.81 267.36 400.02 262.61 398.82 258.11 C 396.16 251.12 388.43 246.84 381.03 247.98 C 349.35 247.96 317.66 247.95 285.97 247.99 C 280.16 248.28 272.76 247.47 268.70 252.70 M 102.93 344.04 C 100.82 354.87 98.55 365.75 98.34 376.83 C 107.05 366.75 113.31 354.83 121.00 344.00 C 114.98 344.00 108.95 344.02 102.93 344.04 M 391.01 343.97 C 398.41 354.96 405.26 366.39 413.59 376.73 C 413.13 365.70 410.89 354.86 409.00 344.02 C 403.00 344.01 397.00 343.97 391.01 343.97 Z" />
        <path d=" M 136.00 176.00 C 141.33 175.99 146.67 175.99 152.00 176.00 C 152.00 181.33 152.00 186.67 152.00 192.00 C 146.66 192.00 141.33 192.00 136.00 192.00 C 135.99 186.66 136.00 181.33 136.00 176.00 Z" />
        <path d=" M 192.00 176.00 C 197.33 175.99 202.66 175.99 208.00 176.00 C 208.00 181.33 208.00 186.67 208.00 192.00 C 202.66 192.00 197.33 192.00 192.00 192.00 C 191.99 186.66 191.99 181.33 192.00 176.00 Z" />
        <path d=" M 248.00 176.00 C 253.33 175.99 258.66 175.99 264.00 176.00 C 264.00 181.33 264.00 186.67 264.00 192.00 C 258.66 192.00 253.33 192.00 248.00 192.00 C 247.99 186.66 247.99 181.33 248.00 176.00 Z" />
        <path d=" M 304.00 176.00 C 309.33 175.99 314.66 175.99 320.00 176.00 C 320.00 181.33 320.00 186.67 320.00 192.00 C 314.66 192.00 309.33 192.00 304.00 192.00 C 303.99 186.66 303.99 181.33 304.00 176.00 Z" />
        <path d=" M 360.00 176.00 C 365.33 175.99 370.66 175.99 376.00 176.00 C 376.00 181.33 376.00 186.67 376.00 192.00 C 370.66 192.00 365.33 192.00 360.00 192.00 C 359.99 186.66 359.99 181.33 360.00 176.00 Z" />
    </g>
</svg>