<?xml version="1.0" encoding="utf-8"?>
    <svg version="1.1" id="Layer_1" xmlns="http://www.w3.org/2000/svg" xmlns:xlink="http://www.w3.org/1999/xlink" x="0px" y="0px" viewBox="0 0 512 512"   style="width:50px; height:32px" xml:space="preserve">
    <g fill="#FFFFFF">
        <path d=" M 39.82 0.00 L 301.10 0.00 C 308.59 3.71 306.78 13.07 307.13 19.97 C 306.93 70.31 306.99 120.65 307.01 171.00 C 357.01 170.97 407.01 171.13 457.02 170.83 C 462.38 171.17 468.01 170.48 473.28 171.83 C 479.01 174.36 477.42 182.06 478.01 186.95 C 478.07 290.31 477.87 393.68 478.11 497.05 C 478.88 502.72 476.98 508.68 472.18 512.00 L 39.82 512.00 C 35.02 508.68 33.11 502.72 33.89 497.05 C 34.13 350.37 33.95 203.68 33.99 57.00 C 34.16 40.48 33.13 23.91 34.61 7.43 C 35.00 4.24 37.51 1.96 39.82 0.00 M 51.00 17.00 C 50.99 56.86 51.03 96.72 50.96 136.57 C 130.62 137.58 210.32 136.71 290.00 137.00 C 290.01 97.00 290.01 57.00 290.00 17.00 C 210.33 17.00 130.66 16.99 51.00 17.00 M 51.01 154.01 C 50.99 267.67 51.00 381.34 51.00 495.00 C 102.34 495.00 153.67 495.01 205.00 495.00 C 204.99 402.00 205.02 309.00 204.99 216.00 C 205.10 202.80 204.36 189.56 205.52 176.39 C 206.11 172.11 211.27 170.53 214.99 171.14 C 239.99 170.58 265.00 171.24 290.01 171.00 C 289.99 165.33 289.96 159.66 290.01 154.00 C 210.34 154.01 130.67 153.99 51.01 154.01 M 221.99 188.00 C 222.03 199.33 222.01 210.67 221.98 222.00 C 230.32 222.00 238.66 221.99 247.01 222.00 C 246.97 210.67 246.98 199.33 247.02 188.00 C 238.67 188.00 230.33 188.00 221.99 188.00 M 264.99 188.00 C 265.02 199.33 265.01 210.66 264.99 221.99 C 330.33 222.01 395.67 222.00 461.01 222.00 C 460.97 210.66 460.99 199.33 461.01 188.01 C 395.67 187.99 330.33 188.00 264.99 188.00 M 222.01 239.01 C 221.99 324.34 222.00 409.67 222.00 495.00 C 301.67 494.99 381.33 495.01 460.99 494.99 C 461.01 409.66 461.00 324.33 461.00 239.00 C 381.33 239.00 301.67 238.99 222.01 239.01 Z" />
        <path d=" M 72.78 58.77 C 76.57 60.08 83.69 60.01 84.47 65.40 C 85.61 83.90 85.16 102.49 84.89 121.01 C 84.93 124.00 82.80 126.19 80.03 127.06 C 75.30 130.00 68.85 125.86 68.53 120.60 C 67.42 104.08 67.89 87.49 67.95 70.95 C 68.01 66.43 70.94 62.69 72.78 58.77 Z" />
        <path d=" M 75.32 162.27 C 80.65 161.09 86.26 166.42 84.84 171.99 C 85.26 188.99 85.32 206.02 84.89 223.02 C 84.75 228.26 78.89 231.21 74.11 230.05 C 71.36 228.51 68.71 225.92 68.51 222.61 C 67.44 205.76 67.85 188.83 68.03 171.96 C 67.99 167.56 70.68 162.95 75.32 162.27 Z" />
        <path d=" M 289.40 196.46 C 297.09 196.31 306.41 193.82 313.14 198.86 C 318.75 203.92 313.74 214.80 306.04 213.06 C 299.26 212.66 291.67 214.80 285.32 211.68 C 279.10 207.69 281.70 196.52 289.40 196.46 Z" />
        <path d=" M 332.41 196.47 C 339.58 196.21 347.58 194.33 354.33 197.69 C 360.14 200.68 359.16 211.15 352.61 212.53 C 344.58 212.79 335.82 214.88 328.11 211.87 C 321.37 207.67 324.63 196.51 332.41 196.47 Z" />
        <path d=" M 329.44 282.54 C 363.35 277.68 398.98 293.55 418.19 321.81 C 437.04 348.14 440.32 384.51 426.90 413.95 C 413.31 444.83 381.83 467.26 347.98 468.80 C 317.70 471.77 286.77 457.70 268.04 433.97 C 255.44 418.54 248.32 398.87 247.77 378.98 C 245.27 339.43 271.86 300.17 309.33 287.48 C 315.78 284.95 322.53 283.19 329.44 282.54 M 331.44 299.51 C 305.88 302.51 282.51 319.49 271.90 342.95 C 259.35 368.27 263.63 400.14 280.50 422.46 C 296.10 442.20 321.63 454.48 346.98 451.86 C 376.58 450.34 403.93 429.38 413.49 401.40 C 423.04 376.31 417.43 346.30 400.04 325.97 C 383.64 306.25 356.93 295.62 331.44 299.51 Z" />
        <path d=" M 334.45 310.51 C 338.86 310.37 344.76 308.96 347.80 313.19 C 351.47 317.15 349.70 324.71 344.29 326.00 C 336.42 327.57 328.22 328.26 320.92 331.89 C 306.39 338.44 295.59 352.62 293.97 368.61 C 292.89 373.46 293.40 380.49 288.03 383.07 C 281.68 386.42 274.50 379.52 276.07 372.99 C 276.46 341.47 303.03 313.10 334.45 310.51 Z" />
    </g>
</svg>