<?xml version="1.0" encoding="utf-8"?>
    <svg version="1.1" xmlns="http://www.w3.org/2000/svg" xmlns:xlink="http://www.w3.org/1999/xlink" x="0px" y="0px" viewBox="10 0 400 400"  style="width:50px; height:32px" xml:space="preserve">
    <g fill="#FFFFFF">
        <path d=" M 11.12 60.18 C 18.60 54.82 28.22 55.00 36.98 54.90 C 181.99 55.08 327.01 55.02 472.02 54.94 C 480.95 55.57 490.90 54.35 499.02 58.99 C 505.85 62.29 509.54 69.56 512.00 76.39 L 512.00 256.64 C 509.30 263.43 505.80 270.49 498.99 274.01 C 492.83 278.01 484.92 276.40 478.02 277.09 C 333.02 276.99 188.01 276.85 43.00 277.15 C 32.18 276.53 19.92 279.57 10.53 272.49 C 5.58 268.41 2.06 262.65 0.00 256.60 L 0.00 76.48 C 1.93 70.08 5.27 63.81 11.12 60.18 M 19.79 74.78 C 16.29 78.57 17.55 84.32 16.99 88.97 C 16.98 140.65 17.00 192.34 16.98 244.03 C 17.19 249.18 16.16 257.23 22.34 259.51 C 29.19 260.30 36.12 260.04 43.01 260.21 C 42.96 237.47 43.05 214.74 42.99 192.00 C 185.00 192.00 327.00 192.01 469.00 192.00 C 468.96 214.72 469.04 237.45 468.99 260.18 C 475.84 260.07 482.72 260.13 489.57 259.45 C 493.44 258.19 495.07 253.81 495.03 250.05 C 495.05 196.69 494.92 143.33 495.07 89.97 C 494.74 84.67 495.69 78.52 491.78 74.23 C 488.86 72.54 485.16 73.15 482.03 72.90 C 332.01 73.11 181.99 72.99 31.97 72.96 C 28.11 73.77 23.08 71.97 19.79 74.78 M 60.00 209.00 C 60.00 214.66 60.00 220.33 60.00 226.00 C 190.67 226.00 321.33 226.00 452.00 226.00 C 451.99 220.33 451.99 214.66 452.00 209.00 C 321.33 209.00 190.67 209.00 60.00 209.00 M 60.00 243.00 C 60.00 248.66 60.00 254.33 60.00 260.00 C 190.67 260.00 321.33 260.00 452.00 260.00 C 451.99 254.33 451.99 248.66 452.00 243.00 C 321.33 243.00 190.67 243.00 60.00 243.00 Z" />
        <path d=" M 427.00 90.00 C 432.68 90.00 438.37 90.00 444.07 90.00 C 443.96 95.55 443.85 101.09 443.71 106.64 C 438.13 106.81 432.56 106.94 427.00 107.08 C 426.99 101.38 426.99 95.69 427.00 90.00 Z" />
        <path d=" M 461.00 90.00 C 466.65 90.00 472.32 90.00 478.00 90.00 C 477.98 95.66 477.99 101.33 478.00 107.00 C 472.32 106.99 466.66 107.00 461.00 107.00 C 460.99 101.33 460.99 95.67 461.00 90.00 Z" />
        <path d=" M 171.00 115.00 C 227.67 115.00 284.33 115.00 341.00 115.00 C 340.99 120.66 340.99 126.33 341.00 132.00 C 284.33 132.00 227.67 132.00 171.00 132.00 C 171.00 126.33 171.00 120.67 171.00 115.00 Z" />
        <path d=" M 85.21 294.53 C 89.56 294.37 93.17 297.88 93.67 302.17 C 96.13 339.14 88.07 377.06 68.99 408.98 C 59.14 425.26 46.47 439.66 32.81 452.83 C 30.38 455.49 26.60 457.65 22.96 456.16 C 17.22 454.82 14.67 446.30 19.43 442.41 C 27.08 433.74 35.96 426.17 42.92 416.89 C 60.27 394.43 71.95 367.40 75.22 339.14 C 76.74 326.27 76.46 313.29 77.62 300.40 C 78.14 296.81 81.76 294.51 85.21 294.53 Z" />
        <path d=" M 426.21 294.55 C 429.84 294.28 433.83 296.60 434.40 300.40 C 435.88 316.86 434.65 333.62 438.26 349.86 C 444.18 378.03 457.31 404.89 477.01 425.99 C 482.37 432.28 488.99 437.50 493.74 444.29 C 496.26 447.83 494.26 452.73 490.88 454.90 C 487.66 457.09 482.97 456.41 480.38 453.60 C 457.18 433.10 438.72 406.97 428.41 377.69 C 420.08 354.81 417.88 330.18 418.10 306.00 C 417.31 300.80 420.50 294.69 426.21 294.55 Z" />
        <path d=" M 245.39 303.44 C 251.62 301.49 257.13 308.08 255.85 313.99 C 256.13 358.99 256.14 404.02 255.85 449.02 C 255.84 457.56 241.20 458.81 239.53 450.61 C 238.23 405.76 239.38 360.84 238.96 315.96 C 238.30 311.21 239.73 304.34 245.39 303.44 Z" />
        <path d=" M 167.38 312.32 C 171.73 310.45 177.64 312.47 178.45 317.40 C 179.42 336.89 180.52 356.83 175.97 376.00 C 170.17 404.93 155.58 431.92 134.97 452.99 C 132.45 455.50 128.63 457.67 125.06 456.04 C 120.82 454.84 117.88 449.19 120.24 445.26 C 125.84 436.69 133.48 429.70 139.06 421.11 C 152.36 400.90 160.63 377.22 161.63 352.98 C 162.24 341.46 161.52 329.90 162.60 318.42 C 163.00 315.76 164.62 313.01 167.38 312.32 Z" />
        <path d=" M 336.92 311.15 C 341.03 312.23 347.82 311.27 348.98 316.95 C 351.79 332.92 348.21 349.47 351.37 365.47 C 355.59 392.52 367.90 418.36 386.76 438.24 C 388.41 440.24 390.39 442.11 391.43 444.55 C 393.46 449.26 389.98 453.25 388.39 457.34 C 384.58 456.24 379.93 456.10 377.01 453.01 C 360.61 436.17 347.94 415.66 340.59 393.31 C 332.44 369.77 332.17 344.53 333.09 319.94 C 333.41 316.68 335.42 313.95 336.92 311.15 Z" />
    </g>
</svg>